<?xml version="1.0" encoding="UTF-8"?>
<svg xmlns="http://www.w3.org/2000/svg" xmlns:xlink="http://www.w3.org/1999/xlink" viewBox="0 0 50 50" width="50px" height="50px">
<g id="surface128346">
<path style=" stroke:none;fill-rule:nonzero;fill:rgb(0%,0%,0%);fill-opacity:1;" d="M 3 15 L 3 36 L 6 36 L 6 15 Z M 9 15 L 9 36 L 12 36 L 12 15 Z M 15 15 L 15 36 L 18 36 L 18 15 Z M 21 15 L 21 36 L 24 36 L 24 15 Z M 27 15 L 27 18 L 48 18 L 48 15 Z M 27 21 L 27 24 L 48 24 L 48 21 Z M 27 27 L 27 30 L 48 30 L 48 27 Z M 27 33 L 27 36 L 48 36 L 48 33 Z M 27 33 "/>
</g>
</svg>
